<svg width="24" height="24" viewBox="0 0 24 24" fill="none" xmlns="http://www.w3.org/2000/svg">
<path d="M12 8.80005C10.1944 8.80005 8.72729 10.2345 8.72729 12C8.72729 13.7654 10.1944 15.1999 12 15.1999C13.8056 15.1999 15.2727 13.7654 15.2727 12C15.2727 10.2345 13.8051 8.80005 12 8.80005Z" fill="black"/>
<path d="M12 4C6.54536 4 1.88742 7.31743 0 11.9998C1.88742 16.6822 6.54536 19.9997 12 19.9997C17.4598 19.9997 22.1126 16.6822 24 11.9998C22.1126 7.31743 17.4598 4 12 4ZM12 17.3332C8.98913 17.3332 6.54536 14.9438 6.54536 11.9998C6.54536 9.05589 8.98913 6.66644 12 6.66644C15.0109 6.66644 17.4541 9.05589 17.4541 11.9998C17.4541 14.9438 15.0109 17.3332 12 17.3332Z" fill="black"/>
</svg>
