<svg width="24" height="24" viewBox="0 0 24 24" fill="none" xmlns="http://www.w3.org/2000/svg">
<rect x="3" y="3" width="18" height="18" rx="5" fill="#995330"/>
<path d="M17 5C17.5302 5.00061 18.0386 5.21152 18.4135 5.58646C18.7885 5.9614 18.9994 6.46975 19 7V17C18.9994 17.5302 18.7885 18.0386 18.4135 18.4135C18.0386 18.7885 17.5302 18.9994 17 19H7C6.46975 18.9994 5.9614 18.7885 5.58646 18.4135C5.21152 18.0386 5.00061 17.5302 5 17V7C5.00061 6.46975 5.21152 5.9614 5.58646 5.58646C5.9614 5.21152 6.46975 5.00061 7 5H17ZM17 3H7C5.93913 3 4.92172 3.42143 4.17157 4.17157C3.42143 4.92172 3 5.93913 3 7V17C3 18.0609 3.42143 19.0783 4.17157 19.8284C4.92172 20.5786 5.93913 21 7 21H17C18.0609 21 19.0783 20.5786 19.8284 19.8284C20.5786 19.0783 21 18.0609 21 17V7C21 5.93913 20.5786 4.92172 19.8284 4.17157C19.0783 3.42143 18.0609 3 17 3Z" fill="#995330"/>
<mask id="mask0_27501_80431" style="mask-type:alpha" maskUnits="userSpaceOnUse" x="7" y="8" width="10" height="8">
<rect x="7" y="8" width="10" height="8" fill="#C4C4C4"/>
</mask>
<g mask="url(#mask0_27501_80431)">
<path d="M17 3H7C5.93913 3 4.92172 3.42143 4.17157 4.17157C3.42143 4.92172 3 5.93913 3 7V17C3 18.0609 3.42143 19.0783 4.17157 19.8284C4.92172 20.5786 5.93913 21 7 21H17C18.0609 21 19.0783 20.5786 19.8284 19.8284C20.5786 19.0783 21 18.0609 21 17V7C21 5.93913 20.5786 4.92172 19.8284 4.17157C19.0783 3.42143 18.0609 3 17 3ZM19 17C18.9994 17.5302 18.7885 18.0386 18.4135 18.4135C18.0386 18.7885 17.5302 18.9994 17 19H7C6.46975 18.9994 5.9614 18.7885 5.58646 18.4135C5.21152 18.0386 5.00061 17.5302 5 17V7C5.00061 6.46975 5.21152 5.9614 5.58646 5.58646C5.9614 5.21152 6.46975 5.00061 7 5H17C17.5302 5.00061 18.0386 5.21152 18.4135 5.58646C18.7885 5.9614 18.9994 6.46975 19 7V17ZM11.3975 12.5522L9.2656 10.4209L8.0645 11.623L11.3975 14.9565L16.123 10.2314L14.9219 9.0293L11.3975 12.5522Z" fill="white"/>
</g>
</svg>
