<svg width="24" height="24" viewBox="0 0 24 24" fill="none" xmlns="http://www.w3.org/2000/svg">
<path fill-rule="evenodd" clip-rule="evenodd" d="M15.6099 2.58877C16.3949 1.80374 17.6677 1.80374 18.4527 2.58877L21.4112 5.54729C22.1963 6.33232 22.1963 7.6051 21.4112 8.39012L9.14172 20.6596C8.86229 20.9391 8.5067 21.1299 8.1194 21.2084L4.40932 21.96C3.74887 22.0937 3.0653 21.8877 2.5888 21.4112C2.1123 20.9347 1.90626 20.2511 2.04005 19.5907L2.79161 15.8806C2.87007 15.4933 3.06094 15.1377 3.34036 14.8583L15.6099 2.58877ZM4.44348 17.851L4.57274 17.2129L6.78709 19.4273L6.14901 19.5565L4.01022 19.9898L4.44348 17.851ZM8.58059 18.3779L5.62208 15.4194L14.2516 6.78988L17.2101 9.7484L8.58059 18.3779ZM18.6315 8.32699L19.9898 6.96871L18.5684 5.54729L18.4527 5.43161L17.0313 4.01019L15.673 5.36847L18.6315 8.32699Z" fill="#058D66"/>
</svg>
