<svg width="32" height="32" viewBox="0 0 32 32" fill="none" xmlns="http://www.w3.org/2000/svg">
<path d="M9.53803 28.4309H22.462C24.8169 28.4309 26 27.2592 26 24.938V13.693C26 11.3718 24.8169 10.2 22.462 10.2H19.3183V12.0141H22.4281C23.5437 12.0141 24.1859 12.6225 24.1859 13.7944V24.8366C24.1859 26.0084 23.5437 26.6169 22.4281 26.6169H9.56056C8.4338 26.6169 7.81408 26.0084 7.81408 24.8366V13.7944C7.81408 12.6225 8.4338 12.0141 9.56056 12.0141H12.6817V10.2H9.53803C7.1831 10.2 6 11.3718 6 13.693V24.938C6 27.2592 7.1831 28.4309 9.53803 28.4309ZM15.9943 19.6084C16.4788 19.6084 16.8957 19.2028 16.8957 18.7296V7.15774L16.8281 5.46761L17.5831 6.26761L19.2957 8.09296C19.4535 8.27324 19.6789 8.36337 19.9042 8.36337C20.3662 8.36337 20.7267 8.02535 20.7267 7.56337C20.7267 7.32676 20.6253 7.14648 20.4564 6.97746L16.6479 3.30422C16.4225 3.07887 16.231 3 15.9943 3C15.769 3 15.5775 3.07887 15.3408 3.30422L11.5324 6.97746C11.3634 7.14648 11.2732 7.32676 11.2732 7.56337C11.2732 8.02535 11.6113 8.36337 12.0845 8.36337C12.2986 8.36337 12.5465 8.27324 12.7042 8.09296L14.4056 6.26761L15.1718 5.46761L15.1042 7.15774V18.7296C15.1042 19.2028 15.5098 19.6084 15.9943 19.6084Z" fill="white"/>
</svg>
