<svg width="24" height="24" viewBox="0 0 24 24" fill="none" xmlns="http://www.w3.org/2000/svg">
<path fill-rule="evenodd" clip-rule="evenodd" d="M13 3C13 2.44772 12.5523 2 12 2C11.4477 2 11 2.44772 11 3V6C11 6.55228 11.4477 7 12 7C12.5523 7 13 6.55228 13 6V3ZM13 18C13 17.4477 12.5523 17 12 17C11.4477 17 11 17.4477 11 18V21C11 21.5523 11.4477 22 12 22C12.5523 22 13 21.5523 13 21V18ZM2 12C2 11.4477 2.44772 11 3 11H6C6.55228 11 7 11.4477 7 12C7 12.5523 6.55228 13 6 13H3C2.44772 13 2 12.5523 2 12ZM18 11C17.4477 11 17 11.4477 17 12C17 12.5523 17.4477 13 18 13H21C21.5523 13 22 12.5523 22 12C22 11.4477 21.5523 11 21 11H18ZM4.92961 19.0711C4.53909 18.6806 4.53909 18.0474 4.92961 17.6569L7.05093 15.5356C7.44146 15.1451 8.07462 15.1451 8.46515 15.5356C8.85567 15.9261 8.85567 16.5593 8.46515 16.9498L6.34383 19.0711C5.9533 19.4616 5.32014 19.4616 4.92961 19.0711ZM15.5351 7.05022C15.1446 7.44074 15.1446 8.07391 15.5351 8.46443C15.9256 8.85496 16.5588 8.85496 16.9493 8.46443L19.0706 6.34311C19.4611 5.95259 19.4611 5.31942 19.0706 4.9289C18.6801 4.53837 18.0469 4.53837 17.6564 4.9289L15.5351 7.05022ZM19.0704 19.0705C18.6799 19.461 18.0467 19.461 17.6562 19.0705L15.5349 16.9492C15.1443 16.5587 15.1443 15.9255 15.5349 15.535C15.9254 15.1445 16.5585 15.1445 16.9491 15.535L19.0704 17.6563C19.4609 18.0468 19.4609 18.68 19.0704 19.0705ZM7.05071 8.46504C7.44123 8.85557 8.0744 8.85557 8.46492 8.46504C8.85544 8.07452 8.85544 7.44135 8.46492 7.05083L6.3436 4.92951C5.95307 4.53898 5.31991 4.53898 4.92938 4.92951C4.53886 5.32003 4.53886 5.9532 4.92939 6.34372L7.05071 8.46504Z" fill="#C6C6C8"/>
</svg>
