<svg width="24" height="24" viewBox="0 0 24 24" fill="none" xmlns="http://www.w3.org/2000/svg">
<path d="M12 2C17.523 2 22 6.477 22 12C22 17.523 17.523 22 12 22C6.477 22 2 17.523 2 12C2 6.477 6.477 2 12 2ZM12 3.25C7.1675 3.25 3.25 7.1675 3.25 12C3.25 16.8325 7.1675 20.75 12 20.75C16.8325 20.75 20.75 16.8325 20.75 12C20.75 7.1675 16.8325 3.25 12 3.25Z" fill="#EC2E24"/>
<path d="M12.8 11.5725L12.8 15.7C12.8 15.8051 12.7793 15.9091 12.7391 16.0061C12.6989 16.1032 12.64 16.1914 12.5657 16.2657C12.4914 16.34 12.4032 16.3989 12.3061 16.4391C12.2091 16.4793 12.1051 16.5 12 16.5C11.8949 16.5 11.7909 16.4793 11.6939 16.4391C11.5968 16.3989 11.5086 16.34 11.4343 16.2657C11.36 16.1914 11.3011 16.1032 11.2609 16.0061C11.2207 15.9091 11.2 15.8051 11.2 15.7L11.2 11.5725C11.2 11.3603 11.2843 11.1568 11.4343 11.0068C11.5843 10.8568 11.7878 10.7725 12 10.7725C12.2122 10.7725 12.4157 10.8568 12.5657 11.0068C12.7157 11.1568 12.8 11.3603 12.8 11.5725ZM13 8.5L13 8.545C13 8.81022 12.8946 9.06457 12.7071 9.25211C12.5196 9.43964 12.2652 9.545 12 9.545C11.7348 9.545 11.4804 9.43964 11.2929 9.25211C11.1054 9.06457 11 8.81022 11 8.545L11 8.5C11 8.23478 11.1054 7.98043 11.2929 7.79289C11.4804 7.60536 11.7348 7.5 12 7.5C12.2652 7.5 12.5196 7.60536 12.7071 7.79289C12.8946 7.98043 13 8.23478 13 8.5Z" fill="#EC2E24"/>
</svg>
