<svg width="24" height="24" viewBox="0 0 24 24" fill="none" xmlns="http://www.w3.org/2000/svg">
<path d="M11.8172 8.83171L15.2527 12.1475L15.2691 11.9738C15.2691 10.2315 13.8023 8.81592 11.9972 8.81592L11.8172 8.83171Z" fill="black"/>
<path d="M11.9997 6.50003C15.0099 6.50003 17.4505 9.06859 17.4505 11.9738C17.4505 12.6528 17.3089 13.3001 17.0635 13.8947L20.2537 16.9736C21.9003 15.6473 23.1984 13.9317 24 11.9738C22.1079 7.35299 17.4587 3.86865 12.0002 3.86865C10.4732 3.86865 9.01204 4.13164 7.65419 4.60531L10.01 6.87354C10.6255 6.64213 11.2962 6.50003 11.9997 6.50003Z" fill="black"/>
<path d="M1.09047 3.84209L3.57712 6.24206L4.07353 6.72116C2.27398 8.07904 0.850698 9.88395 0 11.9736C1.88697 16.5944 6.54383 19.8682 11.9972 19.8682C13.6878 19.8682 15.3018 19.5524 16.7798 18.9786L17.2435 19.4261L20.4229 22.4996L21.8134 21.1629L2.48103 2.5L1.09047 3.84209ZM7.12204 9.65797L8.80707 11.2843C8.75799 11.5107 8.72527 11.7367 8.72527 11.9736C8.72527 13.7158 10.192 15.1314 11.9972 15.1314C12.2426 15.1314 12.4772 15.0998 12.7063 15.0525L14.3913 16.6788C13.6659 17.0261 12.8591 17.2368 11.9972 17.2368C8.98703 17.2368 6.54383 14.8788 6.54383 11.9736C6.54383 11.1422 6.76213 10.3631 7.12204 9.65797Z" fill="black"/>
</svg>
