<svg width="74" height="48" viewBox="0 0 74 48" fill="none" xmlns="http://www.w3.org/2000/svg">
<path d="M27.9483 10.4597L18.3094 32.4002H12.0297L7.2935 14.8825C7.006 13.7984 6.74876 13.4082 5.87112 12.9601C4.44873 12.223 2.08818 11.5292 0 11.0956L0.136186 10.4597H10.2442C11.5304 10.4597 12.6955 11.2691 12.983 12.7L15.4798 25.4046L21.6687 10.4597H27.9483ZM52.5677 25.2457C52.598 19.4498 44.1847 19.1318 44.2452 16.5446C44.2604 15.7497 45.0472 14.9114 46.7571 14.709C47.6196 14.6078 49.965 14.5211 52.6282 15.6918L53.6723 11.0378C52.2348 10.5319 50.3887 10.055 48.1038 10.055C42.2327 10.055 38.0866 13.0324 38.0563 17.3106C38.011 20.4615 41.007 22.2249 43.2617 23.28C45.5768 24.3495 46.3485 25.0433 46.3485 26.0117C46.3334 27.486 44.5025 28.1364 42.7926 28.1653C39.7965 28.2086 38.0715 27.3992 36.6794 26.7777L35.605 31.5908C36.9971 32.1978 39.5544 32.7326 42.2176 32.7615C48.4519 32.747 52.5374 29.7985 52.5677 25.2457ZM68.0777 32.4002H73.5706L68.7738 10.4597H63.6895C62.5546 10.4597 61.5862 11.0956 61.1625 12.064L52.2499 32.4002H58.4842L59.725 29.1192H67.3514L68.0777 32.4002ZM61.45 24.6241L64.5823 16.3856L66.383 24.6241H61.45ZM36.4373 10.4597L31.5194 32.4002H25.5727L30.4905 10.4597H36.4373Z" fill="white"/>
<path d="M31.1563 38.0226C31.6557 37.9503 32.2912 37.878 33.1083 37.878C34.107 37.878 34.8485 38.0948 35.3175 38.4995C35.7564 38.8609 36.0136 39.4101 36.0136 40.075C36.0136 40.7543 35.8018 41.2891 35.4083 41.6793C34.8636 42.2285 33.9859 42.5032 33.0024 42.5032C32.6997 42.5032 32.4122 42.4887 32.1853 42.4309V45.4517H31.1563V38.0226ZM32.1701 41.6504C32.3971 41.7082 32.6695 41.7227 33.0175 41.7227C34.2432 41.7227 34.9998 41.159 34.9998 40.1183C34.9998 39.121 34.2583 38.6441 33.1386 38.6441C32.6997 38.6441 32.3517 38.673 32.1853 38.7163V41.6504H32.1701Z" fill="white"/>
<path d="M37.2848 37.5312H38.3138V45.4662H37.2848V37.5312Z" fill="white"/>
<path d="M43.1863 45.466L43.1106 44.7867H43.0652C42.7474 45.2058 42.1422 45.5961 41.3402 45.5961C40.1902 45.5961 39.6 44.83 39.6 44.0351C39.6 42.7198 40.8106 42.0116 43.0047 42.026V41.9104C43.0047 41.4623 42.8685 40.6529 41.7185 40.6529C41.1889 40.6529 40.6441 40.8119 40.2507 41.0576L40.0086 40.4072C40.4777 40.1182 41.1586 39.9303 41.8698 39.9303C43.61 39.9303 44.0185 41.0576 44.0185 42.1417V44.1652C44.0185 44.6421 44.0488 45.0902 44.1093 45.466H43.1863ZM43.0349 42.7053C41.9152 42.6764 40.629 42.8788 40.629 43.9194C40.629 44.5554 41.0678 44.8589 41.5974 44.8589C42.3389 44.8589 42.808 44.4109 42.9744 43.9484C43.0047 43.8472 43.0349 43.7316 43.0349 43.6304V42.7053Z" fill="white"/>
<path d="M46.8783 38.4994V40.0604H48.3461V40.812H46.8783V43.7316C46.8783 44.3964 47.075 44.7867 47.65 44.7867C47.9224 44.7867 48.1191 44.7578 48.2401 44.7144L48.2855 45.4515C48.0888 45.5238 47.7711 45.5816 47.3776 45.5816C46.8934 45.5816 46.5151 45.4371 46.2579 45.1625C45.9704 44.8734 45.8645 44.3964 45.8645 43.7605V40.812H45.002V40.0604H45.8796V38.7596L46.8783 38.4994Z" fill="white"/>
<path d="M50.6611 38.5285C50.6763 38.861 50.419 39.1356 50.0105 39.1356C49.6473 39.1356 49.3901 38.861 49.3901 38.5285C49.3901 38.1816 49.6624 37.9215 50.0407 37.9215C50.4039 37.9215 50.6611 38.1816 50.6611 38.5285ZM49.5111 45.4662V40.0606H50.5401V45.4662H49.5111Z" fill="white"/>
<path d="M52.2499 41.5201C52.2499 40.9565 52.2348 40.5084 52.2045 40.0603H53.1124L53.173 40.9564H53.2032C53.4907 40.4361 54.1414 39.9447 55.0796 39.9447C55.8664 39.9447 57.0769 40.3928 57.0769 42.2428V45.4804H56.048V42.3584C56.048 41.4912 55.7151 40.7541 54.7315 40.7541C54.0506 40.7541 53.521 41.2166 53.3545 41.7659C53.3091 41.8959 53.2789 42.0549 53.2789 42.2284V45.4804H52.2499V41.5201Z" fill="white"/>
<path d="M63.4779 43.9918C63.4779 44.5555 63.493 45.0469 63.5233 45.466H62.6154L62.5548 44.5844H62.5246C62.2522 45.018 61.6621 45.5961 60.6482 45.5961C59.7554 45.5961 58.6962 45.1192 58.6962 43.2257V40.0604H59.7252V43.0523C59.7252 44.0785 60.0581 44.7723 60.9811 44.7723C61.6772 44.7723 62.1463 44.3098 62.343 43.8762C62.4035 43.7316 62.4338 43.5582 62.4338 43.3703V40.046H63.4627V43.9918H63.4779Z" fill="white"/>
<path d="M65.1876 41.5202C65.1876 40.9565 65.1725 40.5084 65.1422 40.0603H66.0501L66.0955 40.9276H66.1258C66.4436 40.4072 66.9732 39.9303 67.9114 39.9303C68.6831 39.9303 69.2732 40.3783 69.5153 41.0143H69.5456C69.7272 40.7108 69.939 40.4795 70.1811 40.3061C70.514 40.0603 70.8923 39.9303 71.437 39.9303C72.1936 39.9303 73.2982 40.3928 73.2982 42.2717V45.466H72.2844V42.4018C72.2844 41.3612 71.891 40.7397 71.0588 40.7397C70.4686 40.7397 70.0147 41.1588 69.8482 41.6358C69.8028 41.7659 69.7726 41.9538 69.7726 42.1272V45.466H68.7587V42.2284C68.7587 41.3612 68.3653 40.7397 67.5785 40.7397C66.9278 40.7397 66.4587 41.2311 66.3074 41.7225C66.2469 41.867 66.2317 42.0405 66.2317 42.1995V45.466H65.2179V41.5202H65.1876Z" fill="white"/>
</svg>
